<?xml version="1.0" encoding="utf-8"?>
<!-- Generator: Adobe Illustrator 22.0.1, SVG Export Plug-In . SVG Version: 6.00 Build 0)  -->
<svg version="1.1" id="Layer_1" xmlns="http://www.w3.org/2000/svg" xmlns:xlink="http://www.w3.org/1999/xlink" x="0px" y="0px"
	 viewBox="0 0 360 360" style="enable-background:new 0 0 360 360;" xml:space="preserve">
<style type="text/css">
	.st0{fill:none;}
	.st1{fill:#434750;}
	.st2{fill:#F9A349;}
	.st3{fill:#57A4DA;}
</style>
<image style="display:none;overflow:visible;opacity:0.4;" width="1328" height="1072" xlink:href="8B374A0E6F890148.png"  transform="matrix(0.2725 0 0 0.2725 23.2769 19.283)">
</image>
<g id="Layer_2">
	<path class="st0" d="M242.7,269h-22.3l5.1,5l32.2-0.3l-10.9-10.7v2C246.7,267.2,245,269,242.7,269z"/>
	<path class="st0" d="M147.1,162.3l-20,13.3v0.8V261H156v-54.8c0-2.2,1.8-4,4-4h44.4c2.2,0,4,1.8,4,4v37.7v6.5v6.8v3.7h3.9h26.5
		v-5.9v-37.5v-42l-54-38.4L147.1,162.3z"/>
	<path class="st0" d="M235.5,305.3l4.5-4.5c-2.5,1.6-5.1,3.1-7.8,4.6L235.5,305.3z"/>
	<path class="st0" d="M296.5,178.3c-7.3-47.6-43.2-87.5-89.8-99.8c-12.3-3.2-25-4.5-37.7-3.8c0.7,4,0.4,8.1-0.8,11.9
		c-2.2,7-7.5,12.7-14,15.2c-4.3,1.6-8.4,2-12.5,1.2c-3.1-0.6-5.7-1.7-8.3-2.8c-3.9-1.6-7.5-2.9-11.4-2.4c-2.7,0.4-4.8,1.8-6.7,3.6
		c7.8,1.6,15.8,5.5,22.3,10.7V109c0-2.2,1.8-4,4-4h20.6c2.2,0,4,1.8,4,4v16.8l16.6-10.6c1.4-0.9,3.1-0.8,4.5,0.1l74.6,52.9
		c1.8,1.3,2.2,3.8,0.9,5.6c-1.3,1.8-3.8,2.2-5.6,0.9l-72.4-51.3l-20.5,13.1c-1.2,0.8-2.8,0.8-4.1,0.1c-1.3-0.7-2.1-2-2.1-3.5V113
		h-12.6v7.2v25.4c0,1.3-0.6,2.5-1.7,3.3l-35.7,24.8l-1.6,1.1c-0.7,0.5-1.5,0.7-2.3,0.7c-1.3,0-2.5-0.6-3.3-1.7
		c-1.2-1.8-0.8-4.2,0.9-5.5c-1.6-1.9-2.8-4-3.7-6.4c-3.4-9.1-0.7-15.6,1.5-20.8c1.6-3.8,3-7.1,2.4-11.4c-0.4-2.8-1.9-4.9-3.6-6.7
		C96,135.4,88,147.8,78,154.6c-3,2.1-6.2,3.6-9.6,4.7c-6.9,34.6,1.1,71.7,23.3,100.1c30.2,38.6,81.9,55.8,129.1,42.8
		c10.8-3,21.2-7.5,30.7-13.3l6.1-6.3l-32.2,0.3l-16.5,16.8c-0.9,0.9-2,1.3-3.2,1.3c-1.1,0-2.3-0.4-3.2-1.3c-1.8-1.8-1.8-4.6-0.1-6.4
		l10.2-10.4l-11.6,0.1c-2.5,0-4.5-2-4.5-4.4c0-2.5,2-4.5,4.4-4.5l11.6-0.1l-5.2-5.1h-3.2c-2.2,0-4-1.8-4-4v-54.8H164V265
		c0,2.2-1.8,4-4,4h-36.9c-2.2,0-4-1.8-4-4v-87.9v-3.6c0-1.3,0.7-2.6,1.8-3.3l31.6-21.1l30.2-20.1c1.4-0.9,3.2-0.9,4.5,0.1l57.9,41.2
		c1.1,0.8,1.7,2,1.7,3.3v38.8c0,0,0.1-0.1,0.1-0.1c1.7-1.8,4.6-1.8,6.3,0l10.4,10.2l-0.1-11.6c0-2.5,2-4.5,4.4-4.5
		c2.5,0,4.5,2,4.5,4.4l0.1,11.6l10.2-10.4c1.8-1.8,4.6-1.8,6.4-0.1c1.8,1.7,1.8,4.6,0,6.4L272.7,235l0.3,32.2l8.1-8.2
		c6.6-11.2,11.2-23.3,14-35.9l0-2.1c0-1.1,0.4-2,1-2.8c1.2-7,1.9-14.1,1.9-21.2C297.8,190.7,297.4,184.5,296.5,178.3z"/>
	<path class="st0" d="M295.2,244.5l0-0.9c-0.4,0.8-0.9,1.5-1.3,2.3L295.2,244.5z"/>
	<path class="st0" d="M264,267.3l-0.3-32.2l-16.8-16.5c-0.1-0.1-0.1-0.1-0.1-0.2v31.9L264,267.3z"/>
	<path class="st0" d="M89.6,108.9c0.3,0.4,0.7,0.8,1.1,1.1c2.7,2.3,6.9,2.6,9.9,0.6c3.7-2.6,4.7-7.7,2.1-11.4
		c-0.1-0.2-0.3-0.4-0.4-0.6c-0.4-0.5-0.8-0.9-1.2-1.2c-1-0.8-2.2-1.4-3.6-1.6c-2.2-0.4-4.3,0.1-6.1,1.3c-3.7,2.6-4.7,7.7-2.1,11.4
		C89.4,108.7,89.5,108.8,89.6,108.9z"/>
	<path class="st1" d="M293.9,245.9c0.4-0.8,0.9-1.5,1.3-2.3l-0.2-20.5c-2.7,12.6-7.4,24.7-14,35.9L293.9,245.9z"/>
	<path class="st1" d="M207.5,310c0-2.5,2-4.5,4.5-4.5l20.2-0.2c2.6-1.4,5.2-3,7.8-4.6l11.7-11.9c-9.6,5.8-19.9,10.3-30.7,13.3
		c-47.3,13-99-4.1-129.1-42.8C69.6,231,61.5,193.9,68.4,159.3c-3.2,1-6.5,1.6-9.8,1.7c-10.2,33.6-6.2,71,13.4,101.7
		c28.7,45.1,85.1,66.7,136.6,52.2c0.7-0.2,1.4-0.4,2.1-0.7C208.9,313.7,207.6,312.1,207.5,310z"/>
	<path class="st1" d="M206.6,78.5c46.6,12.3,82.5,52.2,89.8,99.8c0.9,6.2,1.4,12.4,1.4,18.7c0,7.1-0.7,14.2-1.9,21.2
		c0.8-1,2.1-1.7,3.5-1.7c2.5,0,4.5,2,4.5,4.4l0,3.3c2.3-6.5,4.1-13.2,5.2-20.2c1.1-6.6,1.6-13.3,1.6-20c-0.3-53-35.2-101.2-86.1-117
		c-19.3-6-40.1-7.1-59.9-3.2c2.1,3.5,3.5,7.2,4.1,10.9C181.6,74,194.4,75.3,206.6,78.5z"/>
	<path class="st2" d="M340.4,277.4c0-2.5-2.1-4.5-4.5-4.4l-11.6,0.1l10.2-10.4c1.8-1.8,1.7-4.6,0-6.3c-1.8-1.8-4.6-1.7-6.4,0
		l-16.5,16.8l-32.2,0.3l22.2-22.6l23.5-0.2c2.5,0,4.5-2.1,4.4-4.5c0-2.5-2-4.5-4.5-4.4l-14.6,0.1l8.5-8.6c1.8-1.8,1.7-4.6-0.1-6.3
		c-1.8-1.7-4.6-1.7-6.3,0l-8.4,8.6l-0.1-11.3l0-3.3c0-2.5-2.1-4.5-4.5-4.4c-1.4,0-2.7,0.7-3.5,1.7c-0.6,0.8-1,1.7-1,2.8l0,2.1
		l0.2,20.5l0,0.9l-1.3,1.3L281,258.9l-8.1,8.2l-0.3-32.2l16.5-16.8c1.8-1.8,1.7-4.6,0-6.4c-1.8-1.7-4.6-1.7-6.4,0.1l-10.2,10.4
		l-0.1-11.6c0-2.5-2.1-4.5-4.5-4.4c-2.5,0-4.5,2-4.4,4.5l0.1,11.6l-10.4-10.2c-1.8-1.8-4.6-1.7-6.3,0c0,0-0.1,0.1-0.1,0.1v6.1
		c0.1,0.1,0.1,0.1,0.1,0.2l16.8,16.5l0.3,32.2l-17.2-16.9v12.6l10.9,10.7l-32.2,0.3l-5.1-5h-12.8l5.2,5.1l-11.6,0.1
		c-2.5,0-4.5,2.1-4.4,4.5c0,2.5,2,4.5,4.5,4.4l11.6-0.1l-10.2,10.4c-1.7,1.8-1.7,4.6,0.1,6.4c0.9,0.9,2,1.3,3.2,1.3
		c1.2,0,2.3-0.5,3.2-1.3l16.5-16.8l32.2-0.3l-6.1,6.3L240,300.8l-4.5,4.5l-3.3,0l-20.2,0.2c-2.5,0-4.5,2-4.5,4.5
		c0,2,1.4,3.7,3.2,4.2c0.4,0.1,0.9,0.2,1.3,0.2l14.6-0.1l-8.4,8.6c-1.8,1.8-1.7,4.6,0,6.3c0.9,0.9,2,1.3,3.2,1.3
		c1.1,0,2.3-0.5,3.2-1.4l8.4-8.6l0.1,14.6c0,2.5,2.1,4.5,4.5,4.4c2.5,0,4.5-2.1,4.4-4.5l-0.2-23.5l22.2-22.7l0.3,32.2L248,337.9
		c-1.8,1.8-1.7,4.6,0,6.4c1.8,1.7,4.6,1.7,6.4-0.1l10.2-10.4l0.1,11.6c0,2.5,2.1,4.5,4.5,4.4c2.5,0,4.5-2.1,4.4-4.5l-0.1-11.6
		l10.4,10.2c0.9,0.9,2,1.3,3.2,1.3c1.1,0,2.3-0.5,3.2-1.4c1.7-1.8,1.7-4.6-0.1-6.3L273.4,321l-0.3-32.2l22.7,22.3l0.2,23.5
		c0,2.5,2.1,4.5,4.5,4.4c2.5,0,4.5-2.1,4.4-4.5l-0.1-14.6l8.6,8.5c0.9,0.9,2,1.3,3.2,1.3c1.1,0,2.3-0.5,3.2-1.3
		c1.7-1.8,1.7-4.6-0.1-6.4l-8.6-8.4l14.5-0.1c2.5,0,4.5-2.1,4.5-4.5c0-2.5-2.1-4.5-4.5-4.4l-23.5,0.2l-22.6-22.2l32.2-0.3l16.8,16.5
		c0.9,0.9,2,1.3,3.2,1.3c1.2,0,2.3-0.5,3.2-1.3c1.8-1.8,1.7-4.6,0-6.3L324.3,282l11.6-0.1C338.4,281.9,340.4,279.9,340.4,277.4z"/>
	<path class="st0" d="M147.1,162.3l-20,13.3v0.8V261H156v-54.8c0-2.2,1.8-4,4-4h44.4c2.2,0,4,1.8,4,4v37.7v6.5v6.8v3.7h3.9h26.5
		v-5.9v-37.5v-42l-54-38.4L147.1,162.3z"/>
	<path class="st1" d="M244.7,170.7l-57.9-41.2c-1.1-0.8-2.7-0.8-3.9-0.1l-61.8,41.2c-0.9,0.6-1.5,1.7-1.5,2.8V265
		c0,1.9,1.5,3.4,3.4,3.4H160c1.9,0,3.4-1.5,3.4-3.4v-55.4H201V265c0,1.9,1.5,3.4,3.4,3.4h38.4c1.9,0,3.4-1.5,3.4-3.4v-91.5
		C246.1,172.4,245.6,171.4,244.7,170.7z M239.3,261.6h-31.6v-55.4c0-1.9-1.5-3.4-3.4-3.4H160c-1.9,0-3.4,1.5-3.4,3.4v55.4h-30.1
		v-86.2l58.3-38.9l54.5,38.8V261.6z"/>
	<path class="st1" d="M261.2,169l-74.6-52.9c-1-0.7-2.3-0.7-3.4-0.1l-18.1,11.6V109c0-1.7-1.3-3-3-3h-20.6c-1.7,0-3,1.3-3,3v35
		l-36,25c0,0,0,0-0.1,0.1c-1.3,1-1.6,2.8-0.7,4.1c0.9,1.3,2.9,1.7,4.2,0.8l37.3-25.9c0.8-0.6,1.3-1.5,1.3-2.5V112h14.6v21.1
		c0,1.1,0.6,2.1,1.6,2.6c1,0.5,2.1,0.5,3.1-0.1l21-13.5l0.5,0.4l72.4,51.3c1.4,1,3.2,0.6,4.2-0.7C262.8,171.9,262.5,170,261.2,169z"
		/>
	<path class="st0" d="M261.2,169l-74.6-52.9c-1-0.7-2.3-0.7-3.4-0.1l-18.1,11.6V109c0-1.7-1.3-3-3-3h-20.6c-1.7,0-3,1.3-3,3v35
		l-36,25c0,0,0,0-0.1,0.1c-1.3,1-1.6,2.8-0.7,4.1c0.9,1.3,2.9,1.7,4.2,0.8l37.3-25.9c0.8-0.6,1.3-1.5,1.3-2.5V112h14.6v21.1
		c0,1.1,0.6,2.1,1.6,2.6c1,0.5,2.1,0.5,3.1-0.1l21-13.5l0.5,0.4l72.4,51.3c1.4,1,3.2,0.6,4.2-0.7C262.8,171.9,262.5,170,261.2,169z"
		/>
	<path class="st0" d="M102.8,99.3c-0.1-0.2-0.3-0.4-0.4-0.6c-0.4-0.5-0.8-0.9-1.2-1.2c-1-0.8-2.2-1.4-3.6-1.6
		c-2.2-0.4-4.3,0.1-6.1,1.3c-3.7,2.6-4.7,7.7-2.1,11.4c0.1,0.2,0.2,0.3,0.3,0.4c0.3,0.4,0.7,0.8,1.1,1.1c2.7,2.3,6.9,2.6,9.9,0.6
		C104.4,108.1,105.3,103,102.8,99.3z"/>
	<path class="st3" d="M101.4,167.4l35.1-24.4v-31.6c-6.3-4.8-13.9-8.5-21.3-9.9c1.8-1.7,3.9-3.1,6.7-3.6c3.8-0.6,7.5,0.7,11.4,2.4
		c2.6,1.1,5.2,2.2,8.3,2.8c4.1,0.8,8.2,0.4,12.5-1.2c6.6-2.5,11.8-8.2,14-15.2c1.2-3.9,1.5-7.9,0.8-11.9c-0.6-3.7-2-7.4-4.1-10.9
		c-0.4-0.6-0.7-1.2-1.1-1.7c-5.3-7.7-13.3-13-22.6-14.7c-9.5-1.8-19.1,0.3-27.1,5.8C104,60,96,72.4,93.6,84.7
		c-1.7-1.8-3.2-4-3.6-6.7c-0.7-4.3,0.7-7.6,2.4-11.4c2.2-5.2,5-11.7,1.5-20.8c-2.9-7.6-9.8-13.2-18.1-14.8
		c-7.2-1.3-14.8,0.5-21.6,5.1c-16.1,11.1-20.1,33.4-8.9,49.7c6.8,9.9,19.4,18,31.5,20.5c-1.8,1.7-3.9,3.1-6.7,3.6
		c-3.8,0.6-7.5-0.7-11.4-2.4c-2.6-1.1-5.2-2.2-8.3-2.8c-4.1-0.8-8.2-0.4-12.5,1.2c-6.6,2.5-11.8,8.2-14,15.2c-2.5,8-1,16.7,4.4,24.5
		c5.3,7.7,13.3,13,22.6,14.7c2.6,0.5,5.1,0.7,7.7,0.6c3.3-0.1,6.6-0.6,9.8-1.7c3.4-1.1,6.6-2.6,9.6-4.7c10-6.9,18-19.3,20.4-31.6
		c1.7,1.8,3.2,4,3.6,6.7c0.7,4.3-0.7,7.6-2.4,11.4c-2.2,5.2-5,11.7-1.5,20.8c0.8,2,1.8,3.9,3.1,5.6c0,0,0,0,0,0
		C101.3,167.5,101.3,167.4,101.4,167.4z M100.7,110.6c-3,2.1-7.2,1.7-9.9-0.6c-0.4-0.3-0.8-0.7-1.1-1.1c-0.1-0.1-0.2-0.3-0.3-0.4
		c-2.6-3.7-1.6-8.8,2.1-11.4c1.8-1.2,4-1.7,6.1-1.3c1.3,0.2,2.5,0.8,3.6,1.6c0.5,0.4,0.9,0.8,1.2,1.2c0.2,0.2,0.3,0.4,0.4,0.6
		C105.3,103,104.4,108.1,100.7,110.6z"/>
</g>
</svg>
